<svg xmlns="http://www.w3.org/2000/svg" width="22.73" height="22.73" viewBox="0 0 22.73 22.73">
  <path id="ic_remove_shopping_cart_24px" d="M22.73,22.73,2.77,2.77,2,2l-.73-.73L0,2.54,4.39,6.93,6.6,11.59,5.25,14.04A1.933,1.933,0,0,0,5,15a2.006,2.006,0,0,0,2,2h7.46l1.38,1.38a1.994,1.994,0,1,0,2.78,2.78L21.46,24ZM7.42,15a.248.248,0,0,1-.25-.25l.03-.12L8.1,13h2.36l2,2Zm8.13-2a1.991,1.991,0,0,0,1.75-1.03l3.58-6.49A.977.977,0,0,0,21,5a1,1,0,0,0-1-1H6.54ZM7,18a2,2,0,1,0,2,2A2,2,0,0,0,7,18Z" transform="translate(0 -1.27)"/>
</svg>
